<?xml version="1.0" encoding="UTF-8" standalone="no"?>
<!DOCTYPE svg PUBLIC "-//W3C//DTD SVG 1.1//EN" "http://www.w3.org/Graphics/SVG/1.1/DTD/svg11.dtd">
<svg width="100%" height="100%" viewBox="0 0 1352 122" version="1.1" xmlns="http://www.w3.org/2000/svg" xmlns:xlink="http://www.w3.org/1999/xlink" xml:space="preserve" xmlns:serif="http://www.serif.com/" style="fill-rule:evenodd;clip-rule:evenodd;stroke-linejoin:round;stroke-miterlimit:2;">
    <g id="Horizontal-columns" serif:id="Horizontal columns" transform="matrix(1.87197,0,0,1,-53.1797,-51.2676)">
        <rect x="28.408" y="51.268" width="721.831" height="121.69" style="fill:none;"/>
        <g transform="matrix(0.33366,0,0,1,2.89388,-1.42109e-14)">
            <rect x="87.676" y="99.155" width="29.296" height="73.803" style="fill:rgb(77,176,155);"/>
        </g>
        <g transform="matrix(0.33366,0,0,0.447465,16.3796,95.5652)">
            <rect x="87.676" y="99.155" width="29.296" height="73.803" style="fill:rgb(77,176,155);"/>
        </g>
        <g transform="matrix(0.33366,0,0,0.828053,29.3838,29.7395)">
            <rect x="87.676" y="99.155" width="29.296" height="73.803" style="fill:rgb(255,107,107);"/>
        </g>
        <g transform="matrix(0.33366,0,0,0.447465,42.8696,95.5652)">
            <rect x="87.676" y="99.155" width="29.296" height="73.803" style="fill:rgb(255,107,107);"/>
        </g>
        <g transform="matrix(0.33366,0,0,0.223733,55.9941,134.261)">
            <rect x="87.676" y="99.155" width="29.296" height="73.803" style="fill:rgb(77,176,155);"/>
        </g>
        <g transform="matrix(0.33366,0,0,0.447465,69.4799,95.5652)">
            <rect x="87.676" y="99.155" width="29.296" height="73.803" style="fill:rgb(77,176,155);"/>
        </g>
        <g transform="matrix(0.33366,0,0,0.828053,82.484,29.7395)">
            <rect x="87.676" y="99.155" width="29.296" height="73.803" style="fill:rgb(77,176,155);"/>
        </g>
        <g transform="matrix(0.33366,0,0,0.447465,95.9698,95.5652)">
            <rect x="87.676" y="99.155" width="29.296" height="73.803" style="fill:rgb(255,107,107);"/>
        </g>
        <g transform="matrix(0.33366,0,0,1,109.456,-1.42109e-14)">
            <rect x="87.676" y="99.155" width="29.296" height="73.803" style="fill:rgb(77,176,155);"/>
        </g>
        <g transform="matrix(0.33366,0,0,0.447465,122.941,95.5652)">
            <rect x="87.676" y="99.155" width="29.296" height="73.803" style="fill:rgb(255,107,107);"/>
        </g>
        <g transform="matrix(0.33366,0,0,0.828053,135.945,29.7395)">
            <rect x="87.676" y="99.155" width="29.296" height="73.803" style="fill:rgb(77,176,155);"/>
        </g>
        <g transform="matrix(0.33366,0,0,0.447465,149.431,95.5652)">
            <rect x="87.676" y="99.155" width="29.296" height="73.803" style="fill:rgb(77,176,155);"/>
        </g>
        <g transform="matrix(0.33366,0,0,0.223733,162.556,134.261)">
            <rect x="87.676" y="99.155" width="29.296" height="73.803" style="fill:rgb(255,107,107);"/>
        </g>
        <g transform="matrix(0.33366,0,0,0.447465,176.042,95.5652)">
            <rect x="87.676" y="99.155" width="29.296" height="73.803" style="fill:rgb(255,107,107);"/>
        </g>
        <g transform="matrix(0.33366,0,0,0.828053,189.046,29.7395)">
            <rect x="87.676" y="99.155" width="29.296" height="73.803" style="fill:rgb(77,176,155);"/>
        </g>
        <g transform="matrix(0.33366,0,0,0.447465,202.531,95.5652)">
            <rect x="87.676" y="99.155" width="29.296" height="73.803" style="fill:rgb(77,176,155);"/>
        </g>
        <g transform="matrix(0.33366,0,0,0.223733,215.897,134.261)">
            <rect x="87.676" y="99.155" width="29.296" height="73.803" style="fill:rgb(77,176,155);"/>
        </g>
        <g transform="matrix(0.33366,0,0,0.447465,229.383,95.5652)">
            <rect x="87.676" y="99.155" width="29.296" height="73.803" style="fill:rgb(77,176,155);"/>
        </g>
        <g transform="matrix(0.33366,0,0,0.828053,242.387,29.7395)">
            <rect x="87.676" y="99.155" width="29.296" height="73.803" style="fill:rgb(255,107,107);"/>
        </g>
        <g transform="matrix(0.33366,0,0,0.447465,255.873,95.5652)">
            <rect x="87.676" y="99.155" width="29.296" height="73.803" style="fill:rgb(255,107,107);"/>
        </g>
        <g transform="matrix(0.33366,0,0,0.223733,268.997,134.261)">
            <rect x="87.676" y="99.155" width="29.296" height="73.803" style="fill:rgb(77,176,155);"/>
        </g>
        <g transform="matrix(0.33366,0,0,0.223733,348.948,134.261)">
            <rect x="87.676" y="99.155" width="29.296" height="73.803" style="fill:rgb(255,107,107);"/>
        </g>
        <g transform="matrix(0.33366,0,0,0.447465,282.483,95.5652)">
            <rect x="87.676" y="99.155" width="29.296" height="73.803" style="fill:rgb(255,107,107);"/>
        </g>
        <g transform="matrix(0.33366,0,0,0.828053,295.487,29.7395)">
            <rect x="87.676" y="99.155" width="29.296" height="73.803" style="fill:rgb(77,176,155);"/>
        </g>
        <g transform="matrix(0.33366,0,0,0.828053,322.579,29.7395)">
            <rect x="87.676" y="99.155" width="29.296" height="73.803" style="fill:rgb(255,107,107);"/>
        </g>
        <g transform="matrix(0.33366,0,0,1.11655,336.065,-20.1574)">
            <rect x="87.676" y="99.155" width="29.296" height="73.803" style="fill:rgb(77,176,155);"/>
        </g>
        <g transform="matrix(0.33366,0,0,0.447465,308.973,95.5652)">
            <rect x="87.676" y="99.155" width="29.296" height="73.803" style="fill:rgb(77,176,155);"/>
        </g>
        <g transform="matrix(0.33366,0,0,1,362.092,-1.42109e-14)">
            <rect x="87.676" y="99.155" width="29.296" height="73.803" style="fill:rgb(77,176,155);"/>
        </g>
        <g transform="matrix(0.33366,0,0,0.447465,375.578,95.5652)">
            <rect x="87.676" y="99.155" width="29.296" height="73.803" style="fill:rgb(77,176,155);"/>
        </g>
        <g transform="matrix(0.33366,0,0,0.828053,388.582,29.7395)">
            <rect x="87.676" y="99.155" width="29.296" height="73.803" style="fill:rgb(255,107,107);"/>
        </g>
        <g transform="matrix(0.33366,0,0,0.447465,402.068,95.5652)">
            <rect x="87.676" y="99.155" width="29.296" height="73.803" style="fill:rgb(255,107,107);"/>
        </g>
        <g transform="matrix(0.33366,0,0,0.223733,415.192,134.261)">
            <rect x="87.676" y="99.155" width="29.296" height="73.803" style="fill:rgb(77,176,155);"/>
        </g>
        <g transform="matrix(0.33366,0,0,0.447465,428.678,95.5652)">
            <rect x="87.676" y="99.155" width="29.296" height="73.803" style="fill:rgb(77,176,155);"/>
        </g>
        <g transform="matrix(0.33366,0,0,0.828053,441.682,29.7395)">
            <rect x="87.676" y="99.155" width="29.296" height="73.803" style="fill:rgb(77,176,155);"/>
        </g>
        <g transform="matrix(0.33366,0,0,0.447465,455.168,95.5652)">
            <rect x="87.676" y="99.155" width="29.296" height="73.803" style="fill:rgb(255,107,107);"/>
        </g>
        <g transform="matrix(0.33366,0,0,1,468.654,-1.42109e-14)">
            <rect x="87.676" y="99.155" width="29.296" height="73.803" style="fill:rgb(77,176,155);"/>
        </g>
        <g transform="matrix(0.33366,0,0,0.447465,482.14,95.5652)">
            <rect x="87.676" y="99.155" width="29.296" height="73.803" style="fill:rgb(255,107,107);"/>
        </g>
        <g transform="matrix(0.33366,0,0,0.828053,495.144,29.7395)">
            <rect x="87.676" y="99.155" width="29.296" height="73.803" style="fill:rgb(77,176,155);"/>
        </g>
        <g transform="matrix(0.33366,0,0,0.447465,508.63,95.5652)">
            <rect x="87.676" y="99.155" width="29.296" height="73.803" style="fill:rgb(77,176,155);"/>
        </g>
        <g transform="matrix(0.33366,0,0,0.223733,521.754,134.261)">
            <rect x="87.676" y="99.155" width="29.296" height="73.803" style="fill:rgb(255,107,107);"/>
        </g>
        <g transform="matrix(0.33366,0,0,0.447465,535.24,95.5652)">
            <rect x="87.676" y="99.155" width="29.296" height="73.803" style="fill:rgb(255,107,107);"/>
        </g>
        <g transform="matrix(0.33366,0,0,0.828053,548.244,29.7395)">
            <rect x="87.676" y="99.155" width="29.296" height="73.803" style="fill:rgb(77,176,155);"/>
        </g>
        <g transform="matrix(0.33366,0,0,0.447465,561.73,95.5652)">
            <rect x="87.676" y="99.155" width="29.296" height="73.803" style="fill:rgb(77,176,155);"/>
        </g>
        <g transform="matrix(0.33366,0,0,0.223733,575.095,134.261)">
            <rect x="87.676" y="99.155" width="29.296" height="73.803" style="fill:rgb(77,176,155);"/>
        </g>
    </g>
    <g transform="matrix(0.6246,0,0,0.447465,1048.62,44.2976)">
        <rect x="87.676" y="99.155" width="29.296" height="73.803" style="fill:rgb(77,176,155);"/>
    </g>
    <g transform="matrix(0.6246,0,0,0.828053,1072.97,-21.5281)">
        <rect x="87.676" y="99.155" width="29.296" height="73.803" style="fill:rgb(255,107,107);"/>
    </g>
    <g transform="matrix(0.6246,0,0,0.447465,1098.21,44.2976)">
        <rect x="87.676" y="99.155" width="29.296" height="73.803" style="fill:rgb(255,107,107);"/>
    </g>
    <g transform="matrix(0.6246,0,0,0.223733,1122.78,82.9939)">
        <rect x="87.676" y="99.155" width="29.296" height="73.803" style="fill:rgb(77,176,155);"/>
    </g>
    <g transform="matrix(0.6246,0,0,0.223733,1272.45,82.9939)">
        <rect x="87.676" y="99.155" width="29.296" height="73.803" style="fill:rgb(255,107,107);"/>
    </g>
    <g transform="matrix(0.6246,0,0,0.447465,1148.03,44.2976)">
        <rect x="87.676" y="99.155" width="29.296" height="73.803" style="fill:rgb(255,107,107);"/>
    </g>
    <g transform="matrix(0.6246,0,0,0.828053,1172.37,-21.5281)">
        <rect x="87.676" y="99.155" width="29.296" height="73.803" style="fill:rgb(77,176,155);"/>
    </g>
    <g transform="matrix(0.6246,0,0,0.828053,1223.09,-21.5281)">
        <rect x="87.676" y="99.155" width="29.296" height="73.803" style="fill:rgb(255,107,107);"/>
    </g>
    <g transform="matrix(0.6246,0,0,1.11655,1248.33,-71.425)">
        <rect x="87.676" y="99.155" width="29.296" height="73.803" style="fill:rgb(77,176,155);"/>
    </g>
    <g transform="matrix(0.6246,0,0,0.447465,1197.61,44.2976)">
        <rect x="87.676" y="99.155" width="29.296" height="73.803" style="fill:rgb(77,176,155);"/>
    </g>
</svg>
