<?xml version="1.0" encoding="UTF-8" standalone="no"?>
<!DOCTYPE svg PUBLIC "-//W3C//DTD SVG 1.1//EN" "http://www.w3.org/Graphics/SVG/1.1/DTD/svg11.dtd">
<svg width="100%" height="100%" viewBox="0 0 291 55" version="1.1" xmlns="http://www.w3.org/2000/svg" xmlns:xlink="http://www.w3.org/1999/xlink" xml:space="preserve" xmlns:serif="http://www.serif.com/" style="fill-rule:evenodd;clip-rule:evenodd;stroke-linejoin:round;stroke-miterlimit:2;">
    <g id="Artboard1" transform="matrix(1,0,0,1.08312,-6.98182,-44.3566)">
        <rect x="6.982" y="40.953" width="290.618" height="50.444" style="fill:none;"/>
        <clipPath id="_clip1">
            <rect x="6.982" y="40.953" width="290.618" height="50.444"/>
        </clipPath>
        <g clip-path="url(#_clip1)">
            <g transform="matrix(0.455172,0,0,0.189693,-211.067,3.78617)">
                <g id="Logo-dark" serif:id="Logo dark">
                    <rect x="465.864" y="21.651" width="659.091" height="642.461" style="fill:none;"/>
                    <g transform="matrix(0.258302,0,0,0.506854,471.654,223.793)">
                        <path d="M234.589,38.72C234.589,28.958 227.569,21.033 218.923,21.033L74.314,21.033C65.667,21.033 58.647,28.958 58.647,38.72L58.647,74.095C58.647,83.856 65.667,91.782 74.314,91.782L218.923,91.782C227.569,91.782 234.589,83.856 234.589,74.095L234.589,38.72Z" style="fill:white;"/>
                    </g>
                    <g transform="matrix(0.258302,0,0,0.506854,545.221,223.793)">
                        <path d="M234.589,38.72C234.589,28.958 227.569,21.033 218.923,21.033L74.314,21.033C65.667,21.033 58.647,28.958 58.647,38.72L58.647,74.095C58.647,83.856 65.667,91.782 74.314,91.782L218.923,91.782C227.569,91.782 234.589,83.856 234.589,74.095L234.589,38.72Z" style="fill:white;"/>
                    </g>
                    <g transform="matrix(0.258302,0,0,0.506854,471.654,294.102)">
                        <path d="M234.589,38.72C234.589,28.958 227.569,21.033 218.923,21.033L74.314,21.033C65.667,21.033 58.647,28.958 58.647,38.72L58.647,74.095C58.647,83.856 65.667,91.782 74.314,91.782L218.923,91.782C227.569,91.782 234.589,83.856 234.589,74.095L234.589,38.72Z" style="fill:white;"/>
                    </g>
                    <g transform="matrix(0.258302,0,0,0.506854,545.221,294.102)">
                        <path d="M234.589,38.72C234.589,28.958 227.569,21.033 218.923,21.033L74.314,21.033C65.667,21.033 58.647,28.958 58.647,38.72L58.647,74.095C58.647,83.856 65.667,91.782 74.314,91.782L218.923,91.782C227.569,91.782 234.589,83.856 234.589,74.095L234.589,38.72Z" style="fill:rgb(255,108,108);"/>
                    </g>
                    <g transform="matrix(0.258302,0,0,0.506854,471.654,364.12)">
                        <path d="M234.589,38.72C234.589,28.958 227.569,21.033 218.923,21.033L74.314,21.033C65.667,21.033 58.647,28.958 58.647,38.72L58.647,74.095C58.647,83.856 65.667,91.782 74.314,91.782L218.923,91.782C227.569,91.782 234.589,83.856 234.589,74.095L234.589,38.72Z" style="fill:rgb(77,176,155);"/>
                    </g>
                    <g transform="matrix(0.258302,0,0,0.506854,545.221,364.12)">
                        <path d="M234.589,38.72C234.589,28.958 227.569,21.033 218.923,21.033L74.314,21.033C65.667,21.033 58.647,28.958 58.647,38.72L58.647,74.095C58.647,83.856 65.667,91.782 74.314,91.782L218.923,91.782C227.569,91.782 234.589,83.856 234.589,74.095L234.589,38.72Z" style="fill:white;"/>
                    </g>
                    <g transform="matrix(8.75889,0,0,19.4043,642.792,401.211)">
                        <text x="0px" y="0px" style="font-family:'RobotoSlab-Regular', 'Roboto Slab';font-size:12px;fill:white;">Assetgrid</text>
                    </g>
                </g>
            </g>
        </g>
    </g>
</svg>
